<svg width="32" height="32" viewBox="0 0 32 32" fill="none" xmlns="http://www.w3.org/2000/svg">
<path d="M27.5763 7.52C27.5059 7.4355 27.4178 7.36751 27.3182 7.32085C27.2186 7.27419 27.11 7.25 27 7.25H6.625L5.97875 3.6875C5.90553 3.28406 5.69297 2.91913 5.37816 2.65641C5.06335 2.39369 4.66628 2.24985 4.25625 2.25H2C1.80109 2.25 1.61032 2.32902 1.46967 2.46967C1.32902 2.61032 1.25 2.80109 1.25 3C1.25 3.19891 1.32902 3.38968 1.46967 3.53033C1.61032 3.67098 1.80109 3.75 2 3.75H4.25C4.3092 3.74903 4.36682 3.76911 4.4126 3.80665C4.45838 3.84419 4.48935 3.89676 4.5 3.955L7.68875 21.4925C7.7899 22.0519 8.06248 22.5661 8.46875 22.9638C7.97816 23.3561 7.61181 23.8823 7.41403 24.4786C7.21626 25.0748 7.19553 25.7156 7.35435 26.3234C7.51318 26.9312 7.84476 27.48 8.30896 27.9033C8.77316 28.3266 9.35009 28.6062 9.96992 28.7085C10.5898 28.8107 11.2259 28.7311 11.8015 28.4793C12.377 28.2274 12.8672 27.8142 13.2128 27.2896C13.5584 26.765 13.7445 26.1515 13.7487 25.5233C13.7529 24.8951 13.5749 24.2791 13.2362 23.75H19.7638C19.3751 24.3582 19.2 25.0785 19.266 25.7973C19.332 26.5161 19.6354 27.1924 20.1284 27.7197C20.6214 28.2469 21.2758 28.595 21.9886 28.7091C22.7013 28.8232 23.4317 28.6968 24.0646 28.3499C24.6976 28.0029 25.197 27.4551 25.4841 26.7929C25.7713 26.1306 25.8298 25.3917 25.6504 24.6925C25.4711 23.9933 25.0641 23.3738 24.4937 22.9315C23.9232 22.4892 23.2218 22.2495 22.5 22.25H10.3962C10.1035 22.25 9.82003 22.1473 9.59525 21.9598C9.37048 21.7723 9.21865 21.5118 9.16625 21.2237L8.71625 18.75H23.5125C24.1565 18.7502 24.7802 18.5243 25.2748 18.1117C25.7693 17.6992 26.1034 17.1261 26.2188 16.4925L27.7375 8.13375C27.7571 8.02588 27.7528 7.91502 27.725 7.80898C27.6971 7.70294 27.6464 7.6043 27.5763 7.52ZM12.25 25.5C12.25 25.8461 12.1474 26.1845 11.9551 26.4722C11.7628 26.76 11.4895 26.9843 11.1697 27.1168C10.8499 27.2492 10.4981 27.2839 10.1586 27.2164C9.81913 27.1488 9.5073 26.9822 9.26256 26.7374C9.01782 26.4927 8.85115 26.1809 8.78363 25.8414C8.7161 25.5019 8.75076 25.1501 8.88321 24.8303C9.01566 24.5105 9.23997 24.2372 9.52775 24.0449C9.81554 23.8526 10.1539 23.75 10.5 23.75C10.9641 23.75 11.4092 23.9344 11.7374 24.2626C12.0656 24.5908 12.25 25.0359 12.25 25.5ZM24.25 25.5C24.25 25.8461 24.1474 26.1845 23.9551 26.4722C23.7628 26.76 23.4895 26.9843 23.1697 27.1168C22.8499 27.2492 22.4981 27.2839 22.1586 27.2164C21.8191 27.1488 21.5073 26.9822 21.2626 26.7374C21.0178 26.4927 20.8512 26.1809 20.7836 25.8414C20.7161 25.5019 20.7508 25.1501 20.8832 24.8303C21.0157 24.5105 21.24 24.2372 21.5278 24.0449C21.8155 23.8526 22.1539 23.75 22.5 23.75C22.9641 23.75 23.4092 23.9344 23.7374 24.2626C24.0656 24.5908 24.25 25.0359 24.25 25.5ZM24.7425 16.2237C24.6901 16.5118 24.5383 16.7723 24.3135 16.9598C24.0887 17.1473 23.8052 17.25 23.5125 17.25H8.44375L6.89875 8.75H26.1012L24.7425 16.2237Z" fill="#003057"/>
</svg>
