<svg width="32" height="32" viewBox="0 0 32 32" fill="none" xmlns="http://www.w3.org/2000/svg">
<path d="M25.5298 24.4708C25.6035 24.5395 25.6626 24.6223 25.7036 24.7143C25.7446 24.8063 25.7667 24.9056 25.7684 25.0063C25.7702 25.107 25.7517 25.207 25.714 25.3004C25.6762 25.3938 25.6201 25.4786 25.5489 25.5499C25.4777 25.6211 25.3928 25.6772 25.2994 25.7149C25.2061 25.7527 25.106 25.7712 25.0053 25.7694C24.9046 25.7676 24.8053 25.7456 24.7133 25.7046C24.6213 25.6636 24.5385 25.6045 24.4698 25.5308L15.9998 17.0621L7.52985 25.5308C7.38767 25.6633 7.19963 25.7354 7.00532 25.732C6.81102 25.7286 6.62564 25.6499 6.48822 25.5124C6.35081 25.375 6.2721 25.1896 6.26867 24.9953C6.26524 24.801 6.33737 24.613 6.46985 24.4708L14.9386 16.0008L6.46985 7.53082C6.33737 7.38865 6.26524 7.2006 6.26867 7.0063C6.2721 6.812 6.35081 6.62661 6.48822 6.4892C6.62564 6.35179 6.81102 6.27308 7.00532 6.26965C7.19963 6.26622 7.38767 6.33834 7.52985 6.47082L15.9998 14.9396L24.4698 6.47082C24.612 6.33834 24.8001 6.26622 24.9944 6.26965C25.1887 6.27308 25.3741 6.35179 25.5115 6.4892C25.6489 6.62661 25.7276 6.812 25.731 7.0063C25.7345 7.2006 25.6623 7.38865 25.5298 7.53082L17.0611 16.0008L25.5298 24.4708Z" fill="#4D6E89"/>
</svg>
