<svg width="28" height="29" viewBox="0 0 28 29" fill="none" xmlns="http://www.w3.org/2000/svg">
<path d="M19.4688 4.21875C17.1719 4.21875 15.1747 5.25453 14 6.99031C12.8253 5.25453 10.8281 4.21875 8.53125 4.21875C6.79139 4.22078 5.12337 4.91283 3.8931 6.1431C2.66283 7.37337 1.97078 9.04139 1.96875 10.7813C1.96875 13.975 3.95937 17.2989 7.88594 20.6589C9.68521 22.1921 11.6288 23.5474 13.6894 24.7058C13.7849 24.7571 13.8916 24.784 14 24.784C14.1084 24.784 14.2151 24.7571 14.3106 24.7058C16.3712 23.5474 18.3148 22.1921 20.1141 20.6589C24.0406 17.2989 26.0312 13.975 26.0312 10.7813C26.0292 9.04139 25.3372 7.37337 24.1069 6.1431C22.8766 4.91283 21.2086 4.22078 19.4688 4.21875ZM14 23.3714C12.2052 22.3356 3.28125 16.8756 3.28125 10.7813C3.2827 9.38931 3.83629 8.05479 4.82054 7.07054C5.80479 6.08629 7.13931 5.5327 8.53125 5.53125C10.7494 5.53125 12.612 6.71578 13.393 8.62328C13.4424 8.74364 13.5265 8.84659 13.6346 8.91904C13.7427 8.9915 13.8699 9.03018 14 9.03018C14.1301 9.03018 14.2573 8.9915 14.3654 8.91904C14.4735 8.84659 14.5576 8.74364 14.607 8.62328C15.388 6.71578 17.2506 5.53125 19.4688 5.53125C20.8607 5.5327 22.1952 6.08629 23.1795 7.07054C24.1637 8.05479 24.7173 9.38931 24.7188 10.7813C24.7188 16.8756 15.7948 22.3356 14 23.3714Z" fill="#003057"/>
</svg>
