<svg width="28" height="29" viewBox="0 0 28 29" fill="none" xmlns="http://www.w3.org/2000/svg">
<path d="M24.2209 4.89588C24.2115 4.73534 24.1435 4.58382 24.0298 4.4701C23.916 4.35639 23.7645 4.28838 23.604 4.27901C15.3593 3.79338 8.76508 6.26526 5.96399 10.8907C4.05649 14.0396 4.13086 17.7595 6.15977 21.4126L3.91102 23.6614C3.84654 23.7214 3.79483 23.7939 3.75896 23.8744C3.72309 23.9549 3.70381 24.0418 3.70225 24.1299C3.7007 24.218 3.7169 24.3055 3.74991 24.3872C3.78292 24.469 3.83204 24.5432 3.89436 24.6055C3.95668 24.6678 4.03091 24.717 4.11262 24.75C4.19433 24.783 4.28186 24.7992 4.36998 24.7976C4.45809 24.7961 4.54499 24.7768 4.62549 24.7409C4.70599 24.705 4.77844 24.6533 4.83852 24.5889L7.08727 22.3401C8.97618 23.389 10.8826 23.9162 12.719 23.9162C14.4453 23.9169 16.138 23.4391 17.6091 22.5359C22.2346 19.7348 24.7054 13.1406 24.2209 4.89588ZM16.9299 21.4115C14.2962 23.0062 11.1724 22.9832 8.05633 21.3689L17.9646 11.4606C18.0805 11.3362 18.1436 11.1716 18.1406 11.0016C18.1376 10.8316 18.0688 10.6694 17.9485 10.5492C17.8283 10.4289 17.6661 10.36 17.4961 10.357C17.3261 10.354 17.1615 10.4172 17.0371 10.5331L7.12883 20.4435C5.51446 17.3274 5.48821 14.2092 7.08617 11.5699C9.5668 7.47604 15.4676 5.24807 22.9455 5.55979C23.2518 13.0323 21.0238 18.9342 16.9299 21.4137V21.4115Z" fill="#003057"/>
</svg>
