<svg width="28" height="29" viewBox="0 0 28 29" fill="none" xmlns="http://www.w3.org/2000/svg">
<path d="M24.0627 22.4625L17.2815 11.1619V4.65625H18.3752C18.5493 4.65625 18.7162 4.58711 18.8393 4.46404C18.9624 4.34097 19.0315 4.17405 19.0315 4C19.0315 3.82595 18.9624 3.65903 18.8393 3.53596C18.7162 3.41289 18.5493 3.34375 18.3752 3.34375H9.62525C9.4512 3.34375 9.28428 3.41289 9.16121 3.53596C9.03814 3.65903 8.969 3.82595 8.969 4C8.969 4.17405 9.03814 4.34097 9.16121 4.46404C9.28428 4.58711 9.4512 4.65625 9.62525 4.65625H10.719V11.1619L3.93775 22.4625C3.79844 22.6948 3.72325 22.9599 3.71985 23.2308C3.71645 23.5016 3.78496 23.7686 3.9184 24.0043C4.05183 24.24 4.24541 24.4361 4.47939 24.5726C4.71337 24.7091 4.97937 24.7811 5.25025 24.7812H22.7502C23.0211 24.7811 23.2871 24.7091 23.5211 24.5726C23.7551 24.4361 23.9487 24.24 24.0821 24.0043C24.2155 23.7686 24.284 23.5016 24.2806 23.2308C24.2772 22.9599 24.2021 22.6948 24.0627 22.4625ZM11.9385 11.6814C11.9996 11.5793 12.0317 11.4624 12.0315 11.3434V4.65625H15.969V11.3434C15.9688 11.4624 16.0009 11.5793 16.062 11.6814L20.3987 18.9089C19.0413 19.2545 17.0234 19.237 14.2967 17.8523C12.4438 16.9139 10.6873 16.4523 9.06525 16.4698L11.9385 11.6814ZM22.9384 23.3594C22.9191 23.3928 22.8913 23.4205 22.8579 23.4397C22.8245 23.4589 22.7866 23.4689 22.7481 23.4688H5.25025C5.21205 23.4683 5.17464 23.4579 5.14172 23.4385C5.1088 23.4192 5.08152 23.3915 5.06261 23.3583C5.04369 23.3252 5.0338 23.2876 5.0339 23.2494C5.03401 23.2112 5.04412 23.1737 5.06322 23.1406L8.23509 17.8458C9.86369 17.6183 11.7001 18.0153 13.6973 19.0259C15.7502 20.0562 17.4642 20.4062 18.8587 20.4062C19.6174 20.4119 20.3724 20.3012 21.0976 20.0781L22.9351 23.1406C22.9548 23.1736 22.9655 23.2112 22.966 23.2496C22.9666 23.288 22.9571 23.3258 22.9384 23.3594Z" fill="#003057"/>
</svg>
