<svg width="48" height="48" viewBox="0 0 48 48" fill="none" xmlns="http://www.w3.org/2000/svg">
<path d="M40.5 12.375H32.625V12C32.625 9.71251 31.7163 7.51871 30.0988 5.9012C28.4813 4.2837 26.2875 3.375 24 3.375C21.7125 3.375 19.5187 4.2837 17.9012 5.9012C16.2837 7.51871 15.375 9.71251 15.375 12V12.375H7.5C6.80381 12.375 6.13613 12.6516 5.64384 13.1438C5.15156 13.6361 4.875 14.3038 4.875 15V37.5C4.875 38.1962 5.15156 38.8639 5.64384 39.3562C6.13613 39.8484 6.80381 40.125 7.5 40.125H40.5C41.1962 40.125 41.8639 39.8484 42.3562 39.3562C42.8484 38.8639 43.125 38.1962 43.125 37.5V15C43.125 14.3038 42.8484 13.6361 42.3562 13.1438C41.8639 12.6516 41.1962 12.375 40.5 12.375ZM17.625 12C17.625 10.3092 18.2966 8.68774 19.4922 7.49219C20.6877 6.29665 22.3092 5.625 24 5.625C25.6908 5.625 27.3123 6.29665 28.5078 7.49219C29.7033 8.68774 30.375 10.3092 30.375 12V12.375H17.625V12ZM40.875 37.5C40.875 37.5995 40.8355 37.6948 40.7652 37.7652C40.6948 37.8355 40.5995 37.875 40.5 37.875H7.5C7.40054 37.875 7.30516 37.8355 7.23483 37.7652C7.16451 37.6948 7.125 37.5995 7.125 37.5V15C7.125 14.9005 7.16451 14.8052 7.23483 14.7348C7.30516 14.6645 7.40054 14.625 7.5 14.625H15.375V18C15.375 18.2984 15.4935 18.5845 15.7045 18.7955C15.9155 19.0065 16.2016 19.125 16.5 19.125C16.7984 19.125 17.0845 19.0065 17.2955 18.7955C17.5065 18.5845 17.625 18.2984 17.625 18V14.625H30.375V18C30.375 18.2984 30.4935 18.5845 30.7045 18.7955C30.9155 19.0065 31.2016 19.125 31.5 19.125C31.7984 19.125 32.0845 19.0065 32.2955 18.7955C32.5065 18.5845 32.625 18.2984 32.625 18V14.625H40.5C40.5995 14.625 40.6948 14.6645 40.7652 14.7348C40.8355 14.8052 40.875 14.9005 40.875 15V37.5Z" fill="#2660FF"/>
</svg>
