<svg width="123" height="22" viewBox="0 0 123 22" fill="none" xmlns="http://www.w3.org/2000/svg">
<path d="M0.769775 21.0014V0.637784H5.07517V17.4517H13.8053V21.0014H0.769775Z" fill="#003057"/>
<path d="M32.2346 0.637784H36.54V13.8622C36.54 15.3471 36.1854 16.6463 35.4761 17.7599C34.7734 18.8736 33.7891 19.742 32.523 20.3651C31.2569 20.9815 29.782 21.2898 28.0983 21.2898C26.4079 21.2898 24.9297 20.9815 23.6636 20.3651C22.3975 19.742 21.4131 18.8736 20.7105 17.7599C20.0078 16.6463 19.6565 15.3471 19.6565 13.8622V0.637784H23.9619V13.4943C23.9619 14.2699 24.1309 14.9593 24.469 15.5625C24.8137 16.1657 25.2976 16.6397 25.9207 16.9844C26.5438 17.3291 27.2697 17.5014 28.0983 17.5014C28.9335 17.5014 29.6593 17.3291 30.2758 16.9844C30.8989 16.6397 31.3795 16.1657 31.7176 15.5625C32.0623 14.9593 32.2346 14.2699 32.2346 13.4943V0.637784Z" fill="#003057"/>
<path d="M54.1292 6.49432C54.0496 5.69223 53.7082 5.06913 53.105 4.625C52.5018 4.18087 51.6831 3.95881 50.649 3.95881C49.9464 3.95881 49.3531 4.05824 48.8692 4.2571C48.3853 4.44934 48.0141 4.7178 47.7556 5.0625C47.5037 5.4072 47.3777 5.7983 47.3777 6.2358C47.3645 6.60038 47.4407 6.91856 47.6064 7.19034C47.7788 7.46212 48.0141 7.69744 48.3124 7.89631C48.6107 8.08854 48.9554 8.25758 49.3465 8.40341C49.7376 8.54261 50.1552 8.66193 50.5993 8.76136L52.4289 9.19886C53.3171 9.39773 54.1325 9.66288 54.8749 9.99432C55.6173 10.3258 56.2603 10.7334 56.8039 11.2173C57.3474 11.7012 57.7684 12.2713 58.0667 12.9276C58.3716 13.5838 58.5274 14.3362 58.534 15.1847C58.5274 16.4309 58.2092 17.5114 57.5794 18.4261C56.9563 19.3343 56.0548 20.0402 54.8749 20.544C53.7016 21.0412 52.2863 21.2898 50.6292 21.2898C48.9852 21.2898 47.5534 21.0379 46.3337 20.5341C45.1206 20.0303 44.1727 19.2846 43.4899 18.2969C42.8138 17.3026 42.4592 16.0729 42.426 14.608H46.5922C46.6386 15.2907 46.8342 15.8608 47.1789 16.3182C47.5302 16.7689 47.9975 17.1103 48.5809 17.3423C49.1708 17.5677 49.837 17.6804 50.5794 17.6804C51.3086 17.6804 51.9417 17.5743 52.4786 17.3622C53.0221 17.1501 53.4431 16.8551 53.7414 16.4773C54.0397 16.0994 54.1888 15.6652 54.1888 15.1747C54.1888 14.7173 54.0529 14.3329 53.7811 14.0213C53.516 13.7098 53.1249 13.4446 52.6078 13.2259C52.0974 13.0071 51.471 12.8082 50.7286 12.6293L48.5113 12.0724C46.7944 11.6548 45.4388 11.0019 44.4445 10.1136C43.4502 9.22538 42.9563 8.02888 42.963 6.52415C42.9563 5.29119 43.2845 4.21401 43.9473 3.29261C44.6168 2.37121 45.5349 1.65199 46.7016 1.13494C47.8683 0.617897 49.194 0.359375 50.6789 0.359375C52.1902 0.359375 53.5094 0.617897 54.6363 1.13494C55.7698 1.65199 56.6514 2.37121 57.2811 3.29261C57.9109 4.21401 58.2357 5.28125 58.2556 6.49432H54.1292Z" fill="#003057"/>
<path d="M63.6544 4.1875V0.637784H80.3788V4.1875H74.1444V21.0014H69.8887V4.1875H63.6544Z" fill="#003057"/>
<path d="M86.1331 21.0014V0.637784H99.8546V4.1875H90.4385V9.03977H99.1487V12.5895H90.4385V17.4517H99.8944V21.0014H86.1331Z" fill="#003057"/>
<path d="M106.278 21.0014V0.637784H114.312C115.85 0.637784 117.162 0.912879 118.249 1.46307C119.343 2.00663 120.175 2.77888 120.745 3.77983C121.322 4.77415 121.61 5.94413 121.61 7.28977C121.61 8.64205 121.318 9.8054 120.735 10.7798C120.152 11.7476 119.306 12.4901 118.199 13.0071C117.099 13.5241 115.767 13.7827 114.202 13.7827H108.823V10.3224H113.506C114.328 10.3224 115.011 10.2098 115.555 9.98438C116.098 9.759 116.502 9.42093 116.768 8.97017C117.039 8.51941 117.175 7.95928 117.175 7.28977C117.175 6.61364 117.039 6.04356 116.768 5.57955C116.502 5.11553 116.095 4.7642 115.545 4.52557C115.001 4.2803 114.315 4.15767 113.486 4.15767H110.583V21.0014H106.278ZM117.275 11.7344L122.336 21.0014H117.583L112.631 11.7344H117.275Z" fill="#003057"/>
</svg>
