<svg width="151" height="26" viewBox="0 0 151 26" fill="none" xmlns="http://www.w3.org/2000/svg">
<path d="M0 25.6418V0.345843H5.34783V21.2323H16.1917V25.6418H0Z" fill="white"/>
<path d="M39.0832 0.345843H44.431V16.7734C44.431 18.6179 43.9905 20.2318 43.1095 21.6152C42.2367 22.9986 41.014 24.0773 39.4414 24.8513C37.8687 25.6171 36.0367 26 33.9453 26C31.8457 26 30.0096 25.6171 28.4369 24.8513C26.8643 24.0773 25.6416 22.9986 24.7688 21.6152C23.896 20.2318 23.4596 18.6179 23.4596 16.7734V0.345843H28.8075V16.3164C28.8075 17.2798 29.0174 18.1362 29.4373 18.8855C29.8655 19.6348 30.4666 20.2236 31.2405 20.6518C32.0145 21.08 32.9161 21.2941 33.9453 21.2941C34.9828 21.2941 35.8844 21.08 36.6501 20.6518C37.4241 20.2236 38.0211 19.6348 38.441 18.8855C38.8691 18.1362 39.0832 17.2798 39.0832 16.3164V0.345843Z" fill="white"/>
<path d="M66.2789 7.6209C66.1801 6.62454 65.7561 5.85051 65.0068 5.29881C64.2575 4.74711 63.2407 4.47126 61.9562 4.47126C61.0834 4.47126 60.3465 4.59477 59.7454 4.84181C59.1444 5.0806 58.6833 5.41409 58.3621 5.84228C58.0493 6.27047 57.8928 6.75629 57.8928 7.29976C57.8764 7.75265 57.971 8.1479 58.1769 8.48551C58.391 8.82312 58.6833 9.11544 59.0538 9.36247C59.4243 9.60127 59.8525 9.81124 60.3382 9.9924C60.824 10.1653 61.3428 10.3135 61.8944 10.4371L64.167 10.9805C65.2703 11.2276 66.283 11.5569 67.2052 11.9686C68.1274 12.3804 68.9261 12.8868 69.6012 13.4879C70.2764 14.089 70.7993 14.7971 71.1698 15.6124C71.5485 16.4276 71.742 17.3622 71.7503 18.4162C71.742 19.9642 71.3468 21.3064 70.5646 22.4428C69.7906 23.5709 68.6708 24.4478 67.2052 25.0736C65.7478 25.6912 63.9899 26 61.9315 26C59.8895 26 58.111 25.6871 56.596 25.0613C55.0892 24.4355 53.9118 23.5091 53.0637 22.2822C52.2239 21.047 51.7834 19.5196 51.7422 17.6998H56.9171C56.9748 18.5479 57.2177 19.2561 57.6458 19.8242C58.0822 20.3842 58.6627 20.8082 59.3872 21.0964C60.1201 21.3764 60.9475 21.5164 61.8697 21.5164C62.7754 21.5164 63.5618 21.3846 64.2287 21.1211C64.9039 20.8576 65.4267 20.4912 65.7972 20.0219C66.1678 19.5525 66.353 19.0131 66.353 18.4038C66.353 17.8356 66.1842 17.358 65.8466 16.971C65.5173 16.584 65.0315 16.2546 64.3893 15.9829C63.7553 15.7112 62.9772 15.4641 62.055 15.2418L59.3008 14.5501C57.1682 14.0314 55.4844 13.2203 54.2494 12.1169C53.0143 11.0135 52.4009 9.52716 52.4091 7.65796C52.4009 6.12636 52.8085 4.78828 53.6318 3.64371C54.4635 2.49913 55.6038 1.6057 57.053 0.96342C58.5021 0.32114 60.1489 0 61.9932 0C63.8705 0 65.5091 0.32114 66.9088 0.96342C68.3168 1.6057 69.4119 2.49913 70.1941 3.64371C70.9763 4.78828 71.3797 6.11401 71.4044 7.6209H66.2789Z" fill="white"/>
<path d="M78.1104 4.75534V0.345843H98.8842V4.75534H91.1403V25.6418H85.8543V4.75534H78.1104Z" fill="white"/>
<path d="M106.032 25.6418V0.345843H123.076V4.75534H111.38V10.7829H122.199V15.1924H111.38V21.2323H123.125V25.6418H106.032Z" fill="white"/>
<path d="M131.054 25.6418V0.345843H141.033C142.943 0.345843 144.574 0.687569 145.924 1.37102C147.282 2.04624 148.316 3.00554 149.024 4.24893C149.74 5.48408 150.098 6.93745 150.098 8.60903C150.098 10.2888 149.736 11.734 149.012 12.9444C148.287 14.1466 147.237 15.0689 145.862 15.7112C144.495 16.3534 142.84 16.6746 140.897 16.6746H134.215V12.3762H140.033C141.054 12.3762 141.902 12.2363 142.577 11.9563C143.252 11.6763 143.754 11.2564 144.084 10.6964C144.421 10.1365 144.59 9.4407 144.59 8.60903C144.59 7.76912 144.421 7.06097 144.084 6.48456C143.754 5.90815 143.248 5.47173 142.565 5.1753C141.889 4.87063 141.037 4.71829 140.008 4.71829H136.402V25.6418H131.054ZM144.714 14.1302L151 25.6418H145.096L138.946 14.1302H144.714Z" fill="white"/>
</svg>
