<svg width="24" height="24" viewBox="0 0 24 24" fill="none" xmlns="http://www.w3.org/2000/svg">
<path d="M21.5306 20.4706L16.8365 15.7774C18.1971 14.144 18.8755 12.049 18.7307 9.92813C18.5859 7.80726 17.629 5.82387 16.0591 4.39054C14.4892 2.95721 12.4271 2.1843 10.3019 2.2326C8.17663 2.2809 6.15181 3.14669 4.64864 4.64986C3.14547 6.15303 2.27968 8.17785 2.23138 10.3031C2.18308 12.4284 2.95599 14.4904 4.38932 16.0603C5.82265 17.6302 7.80604 18.5871 9.92691 18.7319C12.0478 18.8767 14.1428 18.1983 15.7762 16.8378L20.4693 21.5318C20.539 21.6015 20.6218 21.6568 20.7128 21.6945C20.8038 21.7322 20.9014 21.7516 21 21.7516C21.0985 21.7516 21.1961 21.7322 21.2871 21.6945C21.3782 21.6568 21.4609 21.6015 21.5306 21.5318C21.6003 21.4621 21.6556 21.3794 21.6933 21.2884C21.731 21.1973 21.7504 21.0997 21.7504 21.0012C21.7504 20.9026 21.731 20.8051 21.6933 20.714C21.6556 20.623 21.6003 20.5402 21.5306 20.4706ZM3.74997 10.5012C3.74997 9.16617 4.14585 7.86112 4.88755 6.75109C5.62925 5.64106 6.68345 4.7759 7.91686 4.265C9.15026 3.75411 10.5075 3.62044 11.8168 3.88089C13.1262 4.14134 14.3289 4.78421 15.2729 5.72822C16.2169 6.67222 16.8598 7.87496 17.1203 9.18433C17.3807 10.4937 17.247 11.8509 16.7362 13.0843C16.2253 14.3177 15.3601 15.3719 14.2501 16.1136C13.14 16.8553 11.835 17.2512 10.5 17.2512C8.71037 17.2492 6.99463 16.5374 5.72919 15.272C4.46375 14.0065 3.75195 12.2908 3.74997 10.5012Z" fill="#003057"/>
</svg>
