<svg width="24" height="24" viewBox="0 0 24 24" fill="none" xmlns="http://www.w3.org/2000/svg">
<path d="M21.9842 10.7229L17.7561 14.4129L19.0226 19.9067C19.0897 20.1939 19.0705 20.4945 18.9677 20.7709C18.8648 21.0472 18.6827 21.2872 18.4442 21.4606C18.2057 21.6341 17.9214 21.7334 17.6267 21.7462C17.3321 21.7589 17.0402 21.6845 16.7876 21.5323L11.9961 18.6261L7.21483 21.5323C6.96224 21.6845 6.67038 21.7589 6.37574 21.7462C6.0811 21.7334 5.79676 21.6341 5.55826 21.4606C5.31976 21.2872 5.13769 21.0472 5.03481 20.7709C4.93193 20.4945 4.9128 20.1939 4.97983 19.9067L6.24451 14.4186L2.01545 10.7229C1.79177 10.53 1.63003 10.2754 1.5505 9.99089C1.47098 9.70642 1.47721 9.4048 1.56842 9.12385C1.65964 8.84291 1.83176 8.59515 2.06322 8.41164C2.29468 8.22813 2.57517 8.11705 2.86951 8.09231L8.44389 7.6095L10.6198 2.4195C10.7335 2.14717 10.9251 1.91455 11.1707 1.75093C11.4163 1.58731 11.7047 1.5 11.9998 1.5C12.2949 1.5 12.5834 1.58731 12.829 1.75093C13.0745 1.91455 13.2662 2.14717 13.3798 2.4195L15.5623 7.6095L21.1348 8.09231C21.4292 8.11705 21.7097 8.22813 21.9411 8.41164C22.1726 8.59515 22.3447 8.84291 22.4359 9.12385C22.5271 9.4048 22.5334 9.70642 22.4538 9.99089C22.3743 10.2754 22.2126 10.53 21.9889 10.7229H21.9842Z" fill="#003057"/>
</svg>
